<svg width="20" height="21" viewBox="0 0 20 21" fill="none" xmlns="http://www.w3.org/2000/svg">
<path d="M12.9997 5.00045L6.4997 11.5005C6.10188 11.8983 5.87838 12.4378 5.87838 13.0005C5.87838 13.5631 6.10188 14.1026 6.4997 14.5005C6.89753 14.8983 7.43709 15.1218 7.9997 15.1218C8.56231 15.1218 9.10188 14.8983 9.4997 14.5005L15.9997 8.00045C16.7954 7.2048 17.2423 6.12567 17.2423 5.00045C17.2423 3.87523 16.7954 2.7961 15.9997 2.00045C15.2041 1.2048 14.1249 0.757813 12.9997 0.757813C11.8745 0.757812 10.7954 1.2048 9.9997 2.00045L3.4997 8.50045C2.30623 9.69393 1.63574 11.3126 1.63574 13.0005C1.63574 14.6883 2.30623 16.307 3.4997 17.5005C4.69318 18.6939 6.31188 19.3644 7.9997 19.3644C9.68753 19.3644 11.3062 18.6939 12.4997 17.5005L18.9997 11.0005" stroke="#71717A" stroke-width="1.5" stroke-linecap="round" stroke-linejoin="round"/>
</svg>
